# xmcd CD database file generated by Grip 2.96
# 
# Track frame offsets:
#       150
#       29070
#       60575
#       80285
#       98825
#       118035
#       143010
#       187020
#       230375
# 
# Disc length: 3425 seconds
# 
# Revision: 0
# Processed by: cddbd v1.4PL0 Copyright (c) Steve Scherf et al.
# Submitted via: Grip 2.96
# 
DISCID=740d5f09
DTITLE=Jim Zeller Band - Zeller Live
DYEAR=1900
DGENRE=
TTITLE0=Agandmira
TTITLE1=Downtown girl
TTITLE2=Aryane
TTITLE3=Jelly Belly
TTITLE4=Fou
TTITLE5=Mutinerie
TTITLE6=The Shiv of Hong Kong
TTITLE7=Rikers Island Blues
TTITLE8=La guerre est finie
EXTD=
EXTT0=
EXTT1=
EXTT2=
EXTT3=
EXTT4=
EXTT5=
EXTT6=
EXTT7=
EXTT8=
PLAYORDER=
